<svg xmlns="http://www.w3.org/2000/svg" viewBox="0 0 500 500">
  <title>CBPL Logo</title>
  <circle cx="250" cy="250" r="240" fill="white"/>
  <path d="M250 30c121.5 0 220 98.5 220 220s-98.5 220-220 220S30 371.5 30 250 128.5 30 250 30" fill="white"/>
  <text x="250" y="150" text-anchor="middle" font-size="24" font-family="Arial" fill="#2E7D32">Confederação Brasileira de Pesca e Lançamento</text>
  <path d="M200 200c0 0 20 40 50 40s50-40 50-40" stroke="#1B5E20" fill="none" stroke-width="20"/>
  <path d="M200 250c0 0 20 40 50 40s50-40 50-40" stroke="#FDD835" fill="none" stroke-width="20"/>
  <path d="M200 300c0 0 20 40 50 40s50-40 50-40" stroke="#1A237E" fill="none" stroke-width="20"/>
  <text x="250" y="400" text-anchor="middle" font-size="48" font-family="Arial" font-weight="bold" fill="#2E7D32">CBPL NPB</text>
  <text x="250" y="440" text-anchor="middle" font-size="24" font-family="Arial" fill="#2E7D32">Nova Pesca Brasil</text>
</svg>